# xmcd CD database file
#
# Track frame offsets:
#	150
#	17111
#	34942
#	50399
#	67388
#	79708
#	94771
#	111938
#	126082
#	146076
#	162077
#	179038
#	196869
#	212326
#	229315
#	241635
#	256698
#	273865
#	288009
#	308003
#
# Disc length: 4318 seconds
#
# Revision: 0
# Processed by: cddbd v1.5.1PL0 Copyright (c) Steve Scherf et al.
# Submitted via: CDex 1.51
#
DISCID=1410dc14
DTITLE=DOLLY PARTON AND KENNY ROGERS - ONCE UPON A CHRISTMAS
DYEAR=1900
DGENRE=Country
TTITLE0=Dolly Parton with Kenny Rogers - Medley (Winter Wonderland Slei
TTITLE1=Dolly Parton with Kenny Rogers - Christmas Without You
TTITLE2=Dolly Parton with Kenny Rogers - The Christmas Song
TTITLE3=Dolly Parton with Kenny Rogers - A Christmas to Remember
TTITLE4=Dolly Parton with Kenny Rogers - With Bells on
TTITLE5=Dolly Parton with Kenny Rogers - Silent Night
TTITLE6=Dolly Parton with Kenny Rogers - The Greatest Gift of All
TTITLE7=Dolly Parton with Kenny Rogers - White Christmas
TTITLE8=Dolly Parton with Kenny Rogers - Once Upon A Christmas
TTITLE9=Dolly Parton with Kenny Rogers - I Believe in Santa Claus
TTITLE10=Dolly Parton with Kenny Rogers - Medley (Winter Wonderland Slei
TTITLE11=Dolly Parton with Kenny Rogers - Christmas Without You
TTITLE12=Dolly Parton with Kenny Rogers - The Christmas Song
TTITLE13=Dolly Parton with Kenny Rogers - A Christmas to Remember
TTITLE14=Dolly Parton with Kenny Rogers - With Bells on
TTITLE15=Dolly Parton with Kenny Rogers - Silent Night
TTITLE16=Dolly Parton with Kenny Rogers - The Greatest Gift of All
TTITLE17=Dolly Parton with Kenny Rogers - White Christmas
TTITLE18=Dolly Parton with Kenny Rogers - Once Upon A Christmas
TTITLE19=Dolly Parton with Kenny Rogers - I Believe in Santa Claus
EXTD=
EXTT0=
EXTT1=
EXTT2=
EXTT3=
EXTT4=
EXTT5=
EXTT6=
EXTT7=
EXTT8=
EXTT9=
EXTT10=
EXTT11=
EXTT12=
EXTT13=
EXTT14=
EXTT15=
EXTT16=
EXTT17=
EXTT18=
EXTT19=
PLAYORDER=
